<svg width="200" height="200" viewBox="0 0 200 200" xmlns="http://www.w3.org/2000/svg">
  <defs>
    <linearGradient id="steelGradient2" x1="0%" y1="0%" x2="100%" y2="100%">
      <stop offset="0%" style="stop-color:#e5e7eb;stop-opacity:1" />
      <stop offset="50%" style="stop-color:#9ca3af;stop-opacity:1" />
      <stop offset="100%" style="stop-color:#6b7280;stop-opacity:1" />
    </linearGradient>
  </defs>
  
  <!-- I-Beam -->
  <g transform="translate(20, 30)">
    <rect x="0" y="0" width="80" height="15" fill="url(#steelGradient2)"/>
    <rect x="0" y="15" width="15" height="50" fill="url(#steelGradient2)"/>
    <rect x="65" y="15" width="15" height="50" fill="url(#steelGradient2)"/>
    <rect x="0" y="65" width="80" height="15" fill="url(#steelGradient2)"/>
  </g>
  
  <!-- Channel -->
  <g transform="translate(120, 30)">
    <rect x="0" y="0" width="60" height="15" fill="url(#steelGradient2)"/>
    <rect x="0" y="15" width="15" height="50" fill="url(#steelGradient2)"/>
    <rect x="45" y="15" width="15" height="50" fill="url(#steelGradient2)"/>
    <rect x="0" y="65" width="60" height="15" fill="url(#steelGradient2)"/>
  </g>
  
  <!-- Angle -->
  <g transform="translate(20, 120)">
    <rect x="0" y="0" width="50" height="15" fill="url(#steelGradient2)"/>
    <rect x="0" y="15" width="15" height="50" fill="url(#steelGradient2)"/>
  </g>
  
  <!-- Square Hollow Section -->
  <g transform="translate(120, 120)">
    <rect x="0" y="0" width="50" height="50" fill="none" stroke="url(#steelGradient2)" stroke-width="8"/>
  </g>
  
  <!-- Text -->
  <text x="100" y="190" text-anchor="middle" font-family="Arial, sans-serif" font-size="12" font-weight="bold" fill="#dc2626">STRUCTURAL STEEL</text>
</svg>
