<svg width="200" height="200" viewBox="0 0 200 200" xmlns="http://www.w3.org/2000/svg">
  <defs>
    <linearGradient id="steelGradient" x1="0%" y1="0%" x2="100%" y2="100%">
      <stop offset="0%" style="stop-color:#e5e7eb;stop-opacity:1" />
      <stop offset="50%" style="stop-color:#9ca3af;stop-opacity:1" />
      <stop offset="100%" style="stop-color:#6b7280;stop-opacity:1" />
    </linearGradient>
  </defs>
  
  <!-- TMT Bars -->
  <g transform="translate(50, 30)">
    <!-- Bar 1 -->
    <rect x="0" y="0" width="8" height="140" fill="url(#steelGradient)" rx="4"/>
    <rect x="2" y="10" width="4" height="120" fill="#4b5563" opacity="0.3"/>
    <rect x="1" y="20" width="6" height="100" fill="#6b7280" opacity="0.2"/>
    
    <!-- Bar 2 -->
    <rect x="20" y="10" width="8" height="120" fill="url(#steelGradient)" rx="4"/>
    <rect x="22" y="20" width="4" height="100" fill="#4b5563" opacity="0.3"/>
    <rect x="21" y="30" width="6" height="80" fill="#6b7280" opacity="0.2"/>
    
    <!-- Bar 3 -->
    <rect x="40" y="5" width="8" height="130" fill="url(#steelGradient)" rx="4"/>
    <rect x="42" y="15" width="4" height="110" fill="#4b5563" opacity="0.3"/>
    <rect x="41" y="25" width="6" height="90" fill="#6b7280" opacity="0.2"/>
    
    <!-- Bar 4 -->
    <rect x="60" y="15" width="8" height="110" fill="url(#steelGradient)" rx="4"/>
    <rect x="62" y="25" width="4" height="90" fill="#4b5563" opacity="0.3"/>
    <rect x="61" y="35" width="6" height="70" fill="#6b7280" opacity="0.2"/>
    
    <!-- Bar 5 -->
    <rect x="80" y="8" width="8" height="125" fill="url(#steelGradient)" rx="4"/>
    <rect x="82" y="18" width="4" height="105" fill="#4b5563" opacity="0.3"/>
    <rect x="81" y="28" width="6" height="85" fill="#6b7280" opacity="0.2"/>
  </g>
  
  <!-- VIZONE branding on bars -->
  <text x="100" y="180" text-anchor="middle" font-family="Arial, sans-serif" font-size="12" font-weight="bold" fill="#dc2626">VIZONE TMT BARS</text>
</svg>
